<svg width="60" height="59" viewBox="0 0 60 59" fill="none" xmlns="http://www.w3.org/2000/svg">
<g id="Adobe_ColdFusion_logo_2021">
<g id="Group">
<g id="Group_2">
<rect id="Rectangle" width="60" height="58.5" rx="7.08129" fill="#002258"/>
</g>
</g>
<g id="Group_3">
<path id="Path" d="M33.0078 37.3175V41.4461C33.0404 41.6844 32.9099 41.915 32.6902 42.0073C31.9141 42.2806 31.1094 42.4621 30.292 42.5485C29.2592 42.6727 28.2198 42.7329 27.1797 42.7289C25.7029 42.7358 24.2311 42.554 22.7993 42.1877C21.4587 41.8476 20.1805 41.2927 19.0132 40.5442C17.8883 39.8202 16.8959 38.9048 16.0798 37.8385C15.2338 36.7187 14.5897 35.4568 14.1771 34.1108C13.707 32.5525 13.4797 30.9298 13.5033 29.3008C13.4499 26.8147 14.0519 24.359 15.2474 22.1859C16.4076 20.1443 18.129 18.4872 20.2028 17.4159C22.5777 16.2263 25.204 15.6415 27.8534 15.7124C28.8799 15.7021 29.906 15.7558 30.926 15.8729C31.6359 15.9511 32.3345 16.1125 33.0077 16.3537C33.1546 16.4663 33.2302 16.6501 33.2054 16.8348V21.2441C33.2054 21.4845 33.1123 21.5647 32.9281 21.4845C32.1855 21.1392 31.3979 20.903 30.5891 20.7831C29.6319 20.6318 28.6643 20.558 27.6955 20.5625C26.1086 20.5176 24.5375 20.8906 23.1361 21.6448C21.8966 22.3368 20.8787 23.3731 20.2028 24.6311C19.4869 26.0216 19.1323 27.5733 19.1722 29.1404C19.1499 30.2566 19.3175 31.3685 19.6676 32.4274C19.9734 33.3193 20.4368 34.1477 21.0352 34.8723C21.5865 35.5426 22.2593 36.1004 23.0174 36.5158C23.7617 36.9182 24.5545 37.2213 25.3758 37.4177C26.1742 37.614 26.9927 37.7149 27.8143 37.7184C28.7077 37.7235 29.6009 37.6834 30.4903 37.5981C31.2396 37.5245 31.9778 37.3631 32.6902 37.117C32.7953 37.0368 32.8747 37.0168 32.9282 37.0569C32.9918 37.1275 33.021 37.223 33.0077 37.3175H33.0078Z" fill="#7BADFF"/>
<path id="Path_2" d="M37.4081 27.0562H35.0293C34.8441 27.0297 34.7515 26.9358 34.7515 26.7756V22.6871C34.7407 22.6098 34.7665 22.5318 34.8211 22.4766C34.8758 22.4215 34.9529 22.3955 35.0293 22.4065H37.4081V21.7652C37.4001 20.9258 37.4663 20.0874 37.6059 19.26C37.7269 18.5595 37.9403 17.8787 38.2405 17.2356C38.753 16.1591 39.5312 15.2342 40.5 14.5501C41.6571 13.8044 43.0145 13.4403 44.385 13.508C44.7691 13.506 45.153 13.526 45.5349 13.568C45.8469 13.6007 46.1534 13.6749 46.4462 13.7886C46.6157 13.8461 46.7283 14.0086 46.724 14.1893V18.1577C46.724 18.3449 46.6182 18.4117 46.4065 18.3581C46.2095 18.3307 46.0109 18.3173 45.8121 18.3179H45.2178C44.7851 18.3083 44.3565 18.4046 43.9685 18.5985C43.5977 18.802 43.3151 19.1379 43.176 19.5406C42.9833 20.1144 42.8959 20.7188 42.918 21.3243V22.4066H46.2485C46.4065 22.4066 46.5059 22.4333 46.5456 22.4867C46.5902 22.5585 46.6111 22.6427 46.6053 22.7272V26.7757C46.6053 26.9629 46.4863 27.0565 46.2485 27.0563H42.9181V41.9673C42.9171 42.051 42.8969 42.1333 42.8589 42.2077C42.8192 42.2878 42.7203 42.328 42.5613 42.328H37.7251C37.5133 42.328 37.4081 42.2077 37.4081 41.9673L37.4081 27.0562Z" fill="#7BADFF"/>
</g>
</g>
</svg>
