<svg width="36" height="36" viewBox="0 0 36 36" fill="none" xmlns="http://www.w3.org/2000/svg">
<path id="ic_lined" fill-rule="evenodd" clip-rule="evenodd" d="M18 0C8.05786 0 0 8.05933 0 17.9991C0 27.9407 8.05786 36 18 36C27.9421 36 36 27.9407 36 17.9991C36 8.05744 27.9421 0 18 0ZM13.5952 25.4581H9.94971V13.7308H13.5952V25.4581ZM11.7488 12.2916C10.5993 12.2916 9.85502 11.4755 9.85502 10.468C9.85502 9.43601 10.622 8.64447 11.7961 8.64447C12.9721 8.64447 13.6917 9.43601 13.7145 10.468C13.7145 11.4755 12.9721 12.2916 11.7488 12.2916ZM26.9063 25.4581H23.2608V18.9572C23.2608 17.4461 22.7344 16.4141 21.4144 16.4141C20.4069 16.4141 19.8085 17.1109 19.5434 17.7832C19.4468 18.0237 19.4241 18.3588 19.4241 18.6921V25.4562H15.7786V17.4688C15.7786 16.0069 15.7313 14.7837 15.6821 13.727H18.8484L19.0169 15.3574H19.0889C19.568 14.5905 20.744 13.4619 22.7116 13.4619C25.111 13.4619 26.9082 15.0696 26.9082 18.5236V25.4581H26.9063Z" fill="#AAAAAA"/>
</svg>
