<svg width="75" height="36" viewBox="0 0 75 36" fill="none" xmlns="http://www.w3.org/2000/svg">
<g id="Php_logo">
<path id="Combined Shape" fill-rule="evenodd" clip-rule="evenodd" d="M40.4749 28.6772C40.3109 28.6772 40.1556 28.6016 40.0515 28.4708C39.9471 28.3402 39.9048 28.1684 39.9361 28.0021L42.2286 15.8152C42.4467 14.6563 42.3929 13.8244 42.0773 13.4729C41.8841 13.258 41.3038 12.8976 39.5879 12.8976H35.4346L32.5521 28.2183C32.502 28.4848 32.2761 28.6772 32.0134 28.6772H26.2504C26.0865 28.6772 25.9311 28.6016 25.8268 28.4708C25.7226 28.3402 25.6803 28.1683 25.7116 28.0021L30.8942 0.458646C30.9444 0.19238 31.1703 0 31.433 0H37.196C37.3599 0 37.5153 0.0755928 37.6195 0.206176C37.7238 0.336945 37.7661 0.508725 37.7348 0.675025L36.4841 7.32283H40.9522C44.356 7.32283 46.6641 7.94268 48.0084 9.21789C49.3787 10.5188 49.8063 12.5989 49.2794 15.401L46.8681 28.2183C46.818 28.4848 46.5922 28.6772 46.3293 28.6772H40.4749ZM0.126983 35.7936C0.232432 35.9244 0.38996 36 0.555825 36H6.44013C6.70626 36 6.93495 35.8076 6.98573 35.5412L8.29414 28.6772H12.8758C15.1492 28.6772 17.054 28.4273 18.5371 27.9347C20.0442 27.4354 21.4319 26.5869 22.6581 25.4168C23.6824 24.4568 24.5247 23.3805 25.162 22.2174C25.7986 21.0556 26.2564 19.7579 26.5225 18.3606C27.1765 14.9308 26.66 12.2018 24.9874 10.2495C23.3237 8.3074 20.6769 7.32283 17.1209 7.32283H5.80594C5.53981 7.32283 5.31094 7.51521 5.26015 7.78148L0.0102248 35.325C-0.0214635 35.4911 0.0213421 35.6631 0.126983 35.7936ZM17.2044 21.9475C16.1483 22.7764 14.479 23.1969 12.2431 23.1969H9.33845L11.3194 12.8031H14.8927C16.9535 12.8031 18.3186 13.1648 18.95 13.878C19.5675 14.5763 19.7019 15.8702 19.3492 17.7233C18.971 19.7059 18.2493 21.1272 17.2044 21.9475ZM47.7522 36C47.58 36 47.4164 35.9244 47.3069 35.7936C47.1972 35.6631 47.1526 35.4911 47.1855 35.325L52.6368 7.78148C52.6898 7.51521 52.9272 7.32283 53.2038 7.32283H64.9526C68.6453 7.32283 71.3935 8.3074 73.1212 10.2495C74.858 12.2016 75.3941 14.9306 74.7152 18.3606C74.4384 19.7579 73.9633 21.0556 73.3023 22.2174C72.6405 23.3805 71.7659 24.4568 70.7023 25.4168C69.4291 26.5869 67.9881 27.4354 66.4232 27.9347C64.8832 28.4273 62.9053 28.6772 60.5447 28.6772H55.787L54.429 35.5412C54.3761 35.8076 54.1386 36 53.8621 36H47.7522ZM59.8877 23.1969C62.2094 23.1969 63.9427 22.7764 65.0394 21.9475C66.1244 21.1274 66.8737 19.7061 67.2667 17.7233C67.6329 15.8702 67.4934 14.5763 66.852 13.878C66.1964 13.1648 64.7789 12.8031 62.639 12.8031H58.9286L56.8716 23.1969H59.8877Z" fill="#6082BB"/>
</g>
</svg>
