<svg width="60" height="62" viewBox="0 0 60 62" fill="none" xmlns="http://www.w3.org/2000/svg">
<g id="Python-logo-notext">
<path id="path1948" fill-rule="evenodd" clip-rule="evenodd" d="M22.7271 0.585262C24.806 0.220883 27.1687 0.0118784 29.6427 0.000491488C32.1168 -0.0108956 34.6963 0.175334 37.1825 0.585262C41.1099 1.23364 44.4186 4.15198 44.4186 8.03692V21.6871C44.4186 25.69 41.2063 28.9717 37.1825 28.9717H22.7271C17.8192 28.9717 13.6862 33.1454 13.6862 37.8769V44.4264H8.71033C4.50431 44.4264 2.04754 41.4025 1.01881 37.1585C-0.368912 31.457 -0.309974 28.0497 1.01881 22.5894C2.17078 17.8256 5.85369 15.3215 10.0597 15.3215H15.491H29.9632V13.5003H15.491V8.03692C15.491 3.90013 16.6029 1.65697 22.7271 0.585262ZM24.5319 7.1347C24.5319 5.62359 23.3112 4.39463 21.8163 4.39463C20.316 4.39463 19.1006 5.62359 19.1006 7.1347C19.1006 8.64044 20.316 9.85806 21.8163 9.85806C23.3112 9.85806 24.5319 8.64045 24.5319 7.1347Z" fill="url(#paint0_linear_0_242)"/>
<path id="path1950" fill-rule="evenodd" clip-rule="evenodd" d="M46.2234 21.6872V15.3215H51.6546C55.866 15.3215 57.8513 18.4419 58.8907 22.5894C60.3374 28.3498 60.4017 32.6681 58.8907 37.1586C57.428 41.5204 55.8607 44.4264 51.6546 44.4264H44.4185H29.9632V46.2476H44.4185V51.711C44.4185 55.8478 40.8259 57.9507 37.1824 58.9956C31.7012 60.571 27.3082 60.3298 22.7271 58.9956C18.9015 57.881 15.491 55.5959 15.491 51.711V38.0608C15.491 34.133 18.7675 30.7762 22.7271 30.7762H37.1824C41.9993 30.7762 46.2234 26.6224 46.2234 21.6872ZM40.8089 52.6132C40.8089 51.1075 39.5935 49.8899 38.0933 49.8899C36.5984 49.8899 35.3776 51.1075 35.3776 52.6132C35.3776 54.1243 36.5984 55.3533 38.0933 55.3533C39.5935 55.3533 40.8089 54.1243 40.8089 52.6132Z" fill="url(#paint1_linear_0_242)"/>
</g>
<defs>
<linearGradient id="paint0_linear_0_242" x1="-14.2385" y1="16.5535" x2="18.8677" y2="45.0296" gradientUnits="userSpaceOnUse">
<stop stop-color="#5A9FD4"/>
<stop offset="1" stop-color="#306998"/>
</linearGradient>
<linearGradient id="paint1_linear_0_242" x1="46.06" y1="46.2094" x2="34.1487" y2="29.549" gradientUnits="userSpaceOnUse">
<stop stop-color="#FFD43B"/>
<stop offset="1" stop-color="#FFE873"/>
</linearGradient>
</defs>
</svg>
