<svg width="20" height="20" viewBox="0 0 20 20" fill="none" xmlns="http://www.w3.org/2000/svg">
<path fill-rule="evenodd" clip-rule="evenodd" d="M10 20C4.477 20 0 15.523 0 10C0 4.477 4.477 0 10 0C15.523 0 20 4.477 20 10C20 15.523 15.523 20 10 20ZM7.71 17.667C6.72341 15.5743 6.15187 13.3102 6.027 11H2.062C2.45956 14.1442 4.67395 16.7581 7.71 17.667ZM10 17.752C8.878 15.73 8.181 13.439 8.03 11H11.97C11.8254 13.3695 11.1523 15.6766 10 17.752ZM17.938 11H13.973C13.8481 13.3102 13.2766 15.5743 12.29 17.667C15.326 16.7581 17.5404 14.1442 17.938 11ZM6.027 9H2.062C2.45956 5.85585 4.67395 3.24194 7.71 2.333C6.72341 4.42569 6.15187 6.68979 6.027 9ZM11.969 9C11.8248 6.6306 11.152 4.32353 10 2.248C8.84768 4.32345 8.17456 6.63052 8.03 9H8.031H11.969ZM13.973 9C13.8481 6.68979 13.2766 4.42569 12.29 2.333C15.326 3.24194 17.5404 5.85585 17.938 9H13.973Z" fill="#AF000E"/>
</svg>
