<svg width="36" height="36" viewBox="0 0 36 36" fill="none" xmlns="http://www.w3.org/2000/svg">
<path id="ic_twitter" fill-rule="evenodd" clip-rule="evenodd" d="M18 0C8.05786 0 0 8.05786 0 18C0 27.9421 8.05786 36 18 36C27.9421 36 36 27.9421 36 18C36 8.05786 27.9421 0 18 0ZM25.3231 14.7447C25.3307 14.8981 25.3326 15.0514 25.3326 15.2029C25.3326 19.89 21.7666 25.2909 15.2465 25.2909C13.2429 25.2909 11.3814 24.7019 9.81336 23.6964C10.0898 23.7305 10.372 23.7456 10.658 23.7456C12.3188 23.7456 13.847 23.1794 15.0609 22.2287C13.5099 22.1984 12.1995 21.1739 11.7488 19.765C11.9647 19.8047 12.1862 19.8294 12.4173 19.8294C12.7392 19.8294 13.0536 19.7858 13.3509 19.7063C11.7298 19.3786 10.5065 17.9451 10.5065 16.2294C10.5065 16.2142 10.5065 16.1991 10.5065 16.1858C10.9837 16.4509 11.531 16.6119 12.1124 16.6289C11.1617 15.9926 10.5349 14.9075 10.5349 13.6766C10.5349 13.0251 10.7091 12.4173 11.014 11.8946C12.7619 14.0402 15.3753 15.451 18.32 15.5987C18.2613 15.3393 18.2291 15.0685 18.2291 14.7901C18.2291 12.8339 19.8161 11.245 21.7742 11.245C22.7931 11.245 23.7134 11.6768 24.3611 12.3642C25.1697 12.2052 25.9272 11.9116 26.6108 11.5064C26.3457 12.3339 25.7833 13.0289 25.0542 13.4664C25.77 13.3812 26.4537 13.1899 27.0881 12.9077C26.6165 13.6198 26.0143 14.2466 25.3231 14.7447Z" fill="#AAAAAA"/>
</svg>
