<svg width="131" height="47" viewBox="0 0 131 47" fill="none" xmlns="http://www.w3.org/2000/svg">
<g id="logo_header">
<g id="robyco">
<path id="Path" d="M0 37.2656V19.4531C0 16.875 0.96875 14.6328 2.90625 12.7266C4.71875 10.9609 6.99219 10.0781 9.72656 10.0781H12.8906V10.3125L11.0156 14.25H9.72656C8.32031 14.25 7.12891 14.668 6.15234 15.5039C5.17578 16.3398 4.6875 17.6563 4.6875 19.4531C4.6875 19.4531 4.6875 24.6875 4.6875 35.1562L0.234375 37.2656H0Z" fill="#AF000E"/>
<path id="Shape" fill-rule="evenodd" clip-rule="evenodd" d="M13.875 19.4531V27.4219C13.875 30.0312 14.8438 32.2734 16.7812 34.1484C18.625 35.9141 20.8984 36.7969 23.6016 36.7969C26.3359 36.7969 28.6094 35.9141 30.4219 34.1484C32.3594 32.2422 33.3281 30 33.3281 27.4219V19.4531C33.3281 16.8437 32.3594 14.6016 30.4219 12.7266C28.5781 10.9609 26.3047 10.0781 23.6016 10.0781C20.8672 10.0781 18.5938 10.9609 16.7812 12.7266C14.8438 14.6328 13.875 16.875 13.875 19.4531ZM20.0273 31.3711C19.0508 30.5352 18.5625 29.2188 18.5625 27.4219V19.4531C18.5625 17.6563 19.0508 16.3398 20.0273 15.5039C21.0039 14.668 22.1953 14.25 23.6016 14.25C25.0078 14.25 26.1992 14.668 27.1758 15.5039C28.1523 16.3398 28.6406 17.6563 28.6406 19.4531V27.4219C28.6406 29.2188 28.1523 30.5352 27.1758 31.3711C26.1992 32.207 25.0078 32.625 23.6016 32.625C22.1953 32.625 21.0039 32.207 20.0273 31.3711Z" fill="#AF000E"/>
<path id="Shape_2" fill-rule="evenodd" clip-rule="evenodd" d="M38.5312 2.10938V27.4219C38.5312 30.0313 39.5 32.2734 41.4375 34.1484C43.2812 35.9141 45.5547 36.7969 48.2578 36.7969C50.9922 36.7969 53.2656 35.9141 55.0781 34.1484C57.0156 32.2422 57.9844 30 57.9844 27.4219V19.4531C57.9844 16.8438 57.0156 14.6016 55.0781 12.7266C53.2344 10.9609 50.9609 10.0781 48.2578 10.0781C46.0859 10.0781 44.4063 10.7422 43.2188 12.0703V0H42.9844L38.5312 2.10938ZM44.6836 31.3711C43.707 30.5352 43.2188 29.2187 43.2188 27.4219V19.4531C43.2188 17.6562 43.707 16.3398 44.6836 15.5039C45.6602 14.668 46.8516 14.25 48.2578 14.25C49.6641 14.25 50.8555 14.668 51.832 15.5039C52.8086 16.3398 53.2969 17.6562 53.2969 19.4531V27.4219C53.2969 29.2187 52.8086 30.5352 51.832 31.3711C50.8555 32.207 49.6641 32.625 48.2578 32.625C46.8516 32.625 45.6602 32.207 44.6836 31.3711Z" fill="#AF000E"/>
<path id="Path_2" d="M62.0156 27.4219V11.7188L66.4688 9.60938H66.7031V27.4219C66.7031 29.2187 67.1914 30.5352 68.168 31.3711C69.1445 32.207 70.3359 32.625 71.7422 32.625C73.1484 32.625 74.3398 32.207 75.3164 31.3711C76.293 30.5352 76.7812 29.2187 76.7812 27.4219V11.7188L81.2344 9.60938H81.4688V37.0312C81.4688 39.6094 80.5 41.8516 78.5625 43.7578C76.75 45.5234 74.4766 46.4062 71.7422 46.4062H64.5234V46.1719L66.3984 42.2344H71.7422C73.1484 42.2344 74.3438 41.8125 75.3281 40.9688C76.2969 40.125 76.7812 38.8125 76.7812 37.0312V34.8047C75.625 36.1328 73.9453 36.7969 71.7422 36.7969C69.0703 36.7969 66.7969 35.9141 64.9219 34.1484C62.9844 32.3047 62.0156 30.0625 62.0156 27.4219Z" fill="#AF000E"/>
<path id="Path_3" d="M106.125 25.9453V27.4219C106.125 30 105.156 32.2422 103.219 34.1484C101.406 35.9141 99.1328 36.7969 96.3984 36.7969C93.6953 36.7969 91.4219 35.9141 89.5781 34.1484C87.6406 32.2734 86.6719 30.0313 86.6719 27.4219V19.4531C86.6719 16.8594 87.6406 14.6172 89.5781 12.7266C91.3906 10.9609 93.6641 10.0781 96.3984 10.0781C99.0703 10.0781 101.344 10.9609 103.219 12.7266C105.156 14.5547 106.125 16.5703 106.125 18.7734V18.8203L101.672 20.9297H101.438V19.4531C101.438 17.6563 100.949 16.3398 99.9727 15.5039C98.9961 14.668 97.8047 14.25 96.3984 14.25C94.9922 14.25 93.8008 14.668 92.8242 15.5039C91.8477 16.3398 91.3594 17.6563 91.3594 19.4531V27.4219C91.3594 29.2187 91.8477 30.5352 92.8242 31.3711C93.8008 32.207 94.9922 32.625 96.3984 32.625C97.8047 32.625 98.9961 32.2031 99.9727 31.3594C100.949 30.5156 101.438 29.4141 101.438 28.0547L105.891 25.9453H106.125Z" fill="#AF000E"/>
<path id="Shape_3" fill-rule="evenodd" clip-rule="evenodd" d="M110.156 19.4531V27.4219C110.156 30.0312 111.125 32.2734 113.062 34.1484C114.906 35.9141 117.18 36.7969 119.883 36.7969C122.617 36.7969 124.891 35.9141 126.703 34.1484C128.641 32.2422 129.609 30 129.609 27.4219V19.4531C129.609 16.8437 128.641 14.6016 126.703 12.7266C124.859 10.9609 122.586 10.0781 119.883 10.0781C117.148 10.0781 114.875 10.9609 113.062 12.7266C111.125 14.6328 110.156 16.875 110.156 19.4531ZM116.309 31.3711C115.332 30.5352 114.844 29.2188 114.844 27.4219V19.4531C114.844 17.6563 115.332 16.3398 116.309 15.5039C117.285 14.668 118.477 14.25 119.883 14.25C121.289 14.25 122.48 14.668 123.457 15.5039C124.434 16.3398 124.922 17.6563 124.922 19.4531V27.4219C124.922 29.2188 124.434 30.5352 123.457 31.3711C122.48 32.207 121.289 32.625 119.883 32.625C118.477 32.625 117.285 32.207 116.309 31.3711Z" fill="#AF000E"/>
</g>
</g>
</svg>
